<?xml version="1.0" standalone="no"?>
<!DOCTYPE svg PUBLIC "-//W3C//DTD SVG 20010904//EN"
 "http://www.w3.org/TR/2001/REC-SVG-20010904/DTD/svg10.dtd">
<svg version="1.0" xmlns="http://www.w3.org/2000/svg"
 width="256.000000pt" height="256.000000pt" viewBox="0 0 256.000000 256.000000"
 preserveAspectRatio="xMidYMid meet">
<metadata>
Created by potrace 1.14, written by Peter Selinger 2001-2017
</metadata>
<g transform="translate(0.000000,256.000000) scale(0.100000,-0.100000)"
fill="#000000" stroke="none">
<path d="M795 2037 c-9 -5 -19 -6 -22 -3 -3 3 -12 -2 -20 -12 -8 -9 -11 -11
-7 -3 5 11 3 13 -10 8 -10 -4 -20 -7 -22 -7 -2 0 -4 -5 -4 -11 0 -5 5 -7 12
-3 7 5 8 3 3 -5 -5 -9 -10 -10 -18 -2 -7 7 -14 5 -22 -6 -11 -15 -29 -22 -63
-25 -6 -1 -10 -3 -8 -5 6 -6 -48 -61 -55 -57 -4 2 -9 -6 -12 -17 -3 -12 -10
-18 -16 -14 -10 6 -16 -8 -12 -29 1 -5 -5 -6 -13 -3 -10 4 -13 -1 -11 -19 1
-14 -4 -29 -14 -34 -14 -8 -14 -11 -1 -20 13 -8 13 -10 -1 -10 -9 0 -23 -7
-30 -17 -13 -15 -12 -15 11 -3 24 13 25 12 8 -7 -10 -11 -18 -25 -18 -31 0 -7
-6 -12 -12 -12 -9 0 -8 -4 2 -10 13 -9 13 -10 0 -10 -12 0 -12 -2 -1 -9 9 -6
10 -10 2 -16 -9 -5 -9 -10 0 -21 6 -8 7 -14 2 -14 -5 0 -9 -9 -9 -20 0 -14 5
-19 16 -15 12 5 12 4 3 -6 -10 -10 -9 -17 5 -33 9 -11 11 -16 5 -12 -7 4 -13
2 -13 -4 0 -6 -4 -8 -10 -5 -16 10 -11 -1 7 -16 9 -8 14 -9 10 -3 -3 6 0 11 7
11 8 0 11 -8 8 -19 -2 -10 -9 -15 -16 -11 -6 3 -7 2 -3 -3 5 -5 13 -10 18 -10
5 -1 12 -2 16 -3 4 0 -2 -8 -13 -17 -10 -8 -13 -13 -6 -9 6 3 12 1 12 -5 0 -6
4 -8 10 -5 6 4 7 -1 3 -11 -4 -12 -3 -15 5 -10 7 4 12 1 12 -9 0 -10 -5 -13
-12 -9 -7 4 -8 3 -4 -5 6 -8 12 -9 20 -2 9 8 13 7 13 -4 0 -8 -4 -15 -9 -15
-5 0 0 -10 12 -22 11 -12 20 -26 20 -30 0 -5 6 -6 13 -2 9 6 9 5 0 -8 -16 -19
-4 -32 15 -15 13 10 14 8 7 -12 -5 -18 -4 -22 6 -16 9 6 11 2 7 -13 -5 -16 -2
-20 13 -17 12 2 19 -2 19 -11 0 -9 -5 -12 -12 -8 -7 4 -8 3 -4 -4 4 -6 14 -8
23 -5 13 5 15 2 11 -15 -4 -15 -2 -19 8 -15 8 3 14 0 14 -7 0 -6 5 -8 13 -4 7
5 6 0 -3 -11 -8 -10 -10 -16 -3 -12 8 5 18 -3 28 -22 8 -16 21 -33 27 -37 10
-6 10 -4 0 8 -9 11 -10 18 -2 23 6 4 10 3 9 -2 -4 -14 13 -43 21 -38 4 3 11
-2 14 -11 4 -10 2 -13 -6 -8 -7 4 -8 3 -4 -4 4 -7 14 -12 22 -12 8 0 12 -5 9
-11 -4 -6 0 -9 11 -7 11 2 19 -3 19 -12 1 -8 7 -14 15 -12 11 3 11 0 -1 -14
-10 -13 -10 -16 -1 -10 15 9 52 -20 52 -41 0 -8 5 -11 12 -7 8 5 9 2 4 -11 -5
-15 -4 -16 9 -5 10 9 15 9 16 1 1 -6 2 -17 3 -23 1 -7 9 -12 18 -10 12 2 16
-3 13 -19 -4 -18 -2 -19 12 -7 12 9 15 9 9 1 -4 -8 -2 -13 7 -13 8 0 21 -8 28
-17 13 -17 13 -17 -6 -3 -19 14 -19 14 -6 -3 8 -10 21 -15 29 -12 13 5 13 3 1
-12 -9 -11 -10 -14 -1 -9 7 4 12 2 12 -6 0 -9 3 -9 10 2 8 12 10 11 10 -7 0
-13 5 -22 12 -20 7 1 12 -3 13 -10 0 -7 6 -18 13 -25 11 -11 12 -9 7 7 -6 20
-6 20 9 1 8 -10 13 -23 10 -27 -2 -4 5 -6 17 -4 18 4 19 2 7 -12 -8 -11 -9
-14 -1 -10 17 11 53 -14 53 -37 0 -16 2 -17 17 -5 9 8 14 10 11 4 -3 -5 -2
-19 3 -30 l8 -20 0 20 c1 16 3 17 10 6 7 -11 15 -8 37 15 15 16 24 23 19 15
-6 -10 -4 -12 4 -7 7 5 10 14 7 22 -3 8 -2 13 2 13 20 -3 33 2 27 11 -6 9 8
15 29 11 5 -1 4 5 -3 13 -11 13 -10 15 6 12 10 -2 31 10 48 27 17 17 21 24 10
15 -36 -27 -51 -31 -20 -4 29 24 34 27 54 30 5 0 13 5 18 10 5 5 2 6 -6 1 -9
-5 -12 -3 -9 6 3 8 10 13 16 12 6 -2 14 6 17 17 4 11 11 18 16 15 5 -4 9 -1 9
5 0 6 5 8 12 4 8 -5 9 -2 5 9 -3 9 -1 19 5 23 7 4 8 3 4 -4 -4 -7 -2 -12 3
-12 10 0 15 14 12 32 0 5 2 7 7 7 20 -3 25 2 12 12 -12 8 -10 9 8 4 16 -5 22
-2 22 10 0 9 5 13 10 10 6 -3 10 3 10 15 0 14 5 20 18 18 11 -2 17 3 16 14 -1
10 2 15 7 13 4 -3 13 4 19 15 6 11 18 20 26 20 9 0 12 5 8 12 -5 8 -2 9 10 5
10 -4 15 -3 11 3 -3 5 -1 18 4 27 6 10 11 14 11 9 0 -6 7 -1 16 10 8 10 12 12
8 4 -4 -9 -3 -12 2 -7 5 5 10 13 10 18 1 5 2 14 3 19 0 6 8 10 17 10 8 0 13 4
10 9 -3 5 1 12 10 15 9 3 14 13 11 21 -4 10 -1 12 10 8 12 -5 15 -2 10 10 -4
12 -2 14 10 10 11 -4 14 -2 9 5 -4 7 -2 12 4 12 6 0 8 5 4 12 -5 8 -2 9 11 4
15 -5 16 -4 5 9 -12 15 -5 20 22 16 4 0 5 9 3 20 -3 15 0 19 11 15 12 -5 12
-2 3 15 -10 19 -9 20 11 9 15 -8 20 -8 16 -1 -4 6 -1 11 6 11 8 0 9 3 3 8 -16
12 -16 32 0 32 8 0 15 5 15 11 0 5 -5 7 -12 3 -7 -4 -8 -3 -4 4 4 7 14 12 22
12 12 0 13 4 3 23 -12 21 -11 21 6 7 17 -14 18 -13 12 3 -3 9 -3 17 2 17 5 0
8 8 7 18 0 9 5 16 12 14 9 -2 11 2 5 10 -13 21 -10 52 6 72 14 16 14 18 1 11
-13 -7 -13 -6 -2 7 10 13 10 17 0 21 -10 4 -9 6 1 6 11 1 10 5 -5 16 -10 8
-14 15 -9 14 22 -3 29 2 15 11 -13 9 -13 10 0 10 13 0 13 1 0 10 -13 9 -13 11
0 20 13 9 13 10 0 11 -8 1 -19 0 -25 -1 -5 -1 -7 2 -3 5 4 4 3 16 -3 26 -7 14
-6 17 4 13 8 -3 14 2 14 10 0 8 -4 13 -9 10 -4 -3 -13 -2 -19 2 -8 4 -7 9 2
15 10 6 11 9 2 9 -7 0 -13 7 -13 15 0 8 -4 15 -10 15 -5 0 -10 7 -10 16 0 10
-6 14 -15 10 -8 -3 -14 -2 -14 2 4 21 -2 42 -10 38 -5 -3 -15 2 -22 11 -12 14
-12 16 0 8 10 -6 12 -4 6 4 -4 7 -16 11 -26 8 -10 -3 -18 -2 -17 2 1 3 -2 16
-6 29 -7 22 -8 23 -22 5 -14 -17 -15 -17 -9 4 5 18 3 22 -9 17 -9 -3 -16 -1
-16 6 0 6 -4 8 -10 5 -5 -3 -10 2 -11 12 0 16 -1 16 -9 -2 l-9 -20 0 20 c-1
17 -3 17 -11 5 -8 -13 -10 -12 -10 4 0 14 -5 17 -21 13 -16 -4 -19 -2 -15 10
5 13 4 14 -9 3 -12 -10 -15 -10 -15 1 0 12 -2 12 -9 0 -7 -11 -9 -11 -14 0 -3
9 -6 7 -7 -6 -1 -19 -1 -19 -11 -2 -8 14 -14 16 -25 6 -11 -9 -14 -8 -14 2 0
11 -2 11 -10 -1 -9 -13 -10 -13 -10 0 0 13 -1 13 -10 0 -8 -13 -13 -13 -32 -1
-13 7 -20 10 -16 6 9 -9 -32 -41 -46 -37 -4 1 -13 -1 -20 -6 -6 -5 -18 -8 -27
-7 -12 2 -15 -3 -11 -18 4 -14 2 -18 -7 -13 -8 5 -24 -4 -42 -25 -16 -18 -29
-27 -29 -20 0 7 -5 9 -10 6 -6 -4 -8 -9 -6 -13 5 -9 -20 -32 -28 -25 -3 4 -6
1 -6 -5 0 -6 -6 -10 -12 -8 -7 1 -10 1 -5 -1 14 -9 7 -25 -9 -19 -11 4 -15 2
-11 -8 3 -8 -1 -13 -11 -12 -11 1 -16 -6 -16 -17 2 -15 -1 -16 -14 -5 -8 7
-16 11 -18 8 -2 -3 -12 5 -23 16 -11 12 -17 25 -13 29 4 4 -2 5 -12 3 -14 -2
-22 4 -27 22 -4 14 -7 21 -8 17 -1 -4 -10 -3 -22 3 -12 7 -18 18 -15 26 3 9 1
12 -4 9 -6 -3 -13 1 -16 10 -5 12 -9 13 -20 4 -11 -9 -14 -9 -14 0 0 7 -4 9
-10 6 -6 -4 -7 1 -3 12 6 16 5 17 -12 3 -10 -8 -16 -10 -12 -3 4 6 -7 19 -28
32 -23 14 -37 17 -41 9 -4 -6 -3 -8 3 -5 6 4 17 -1 24 -11 12 -15 12 -16 -2
-5 -9 7 -19 10 -22 6 -4 -3 -9 2 -13 11 -3 9 -10 16 -16 16 -5 0 -6 -5 -2 -12
4 -7 3 -8 -5 -4 -6 4 -9 11 -6 16 3 5 1 11 -5 15 -5 3 -10 -1 -10 -9 0 -9 -5
-16 -11 -16 -5 0 -8 4 -4 9 3 5 1 12 -5 16 -5 3 -10 3 -10 -2 0 -4 -11 -9 -25
-9 -14 -1 -23 1 -20 5 6 11 -20 9 -40 -2z m768 -32 c-3 -9 -8 -14 -10 -11 -3
3 -2 9 2 15 9 16 15 13 8 -4z m-455 -80 c-3 -3 -9 2 -12 12 -6 14 -5 15 5 6 7
-7 10 -15 7 -18z"/>
<path d="M660 1989 c0 -5 5 -7 10 -4 6 3 10 8 10 11 0 2 -4 4 -10 4 -5 0 -10
-5 -10 -11z"/>
<path d="M1405 1961 c-3 -5 -2 -12 3 -15 5 -3 9 1 9 9 0 17 -3 19 -12 6z"/>
<path d="M2073 1525 c0 -8 4 -12 9 -9 5 3 6 10 3 15 -9 13 -12 11 -12 -6z"/>
<path d="M0 484 l0 -484 1280 0 1280 0 -2 482 c-3 449 -4 481 -20 484 -10 1
-20 -2 -24 -7 -3 -5 -13 -5 -24 1 -13 7 -21 7 -25 0 -5 -8 -11 -7 -21 1 -11 9
-14 9 -14 -1 0 -10 -3 -10 -14 -1 -10 9 -16 9 -21 1 -5 -8 -11 -8 -21 1 -11 9
-14 8 -14 -2 0 -11 -2 -11 -10 1 -5 8 -10 10 -10 4 0 -6 -7 -11 -15 -11 -8 0
-15 5 -15 11 0 6 -5 4 -10 -4 -8 -13 -10 -13 -10 0 0 10 -3 11 -11 3 -6 -6
-18 -9 -27 -6 -10 4 -13 2 -8 -5 4 -7 2 -12 -3 -12 -13 0 -10 -22 4 -32 6 -5
4 -8 -5 -8 -13 0 -13 -1 0 -10 12 -8 12 -10 1 -10 -11 0 -11 -3 -1 -15 10 -12
10 -15 -1 -15 -11 0 -11 -2 1 -10 11 -7 11 -10 2 -10 -8 0 -10 -5 -5 -12 11
-19 11 -58 0 -58 -5 0 -3 -8 4 -17 12 -15 12 -16 -1 -8 -13 7 -13 6 -2 -7 9
-11 10 -18 2 -23 -7 -4 -7 -13 1 -27 8 -15 8 -19 0 -14 -6 4 -11 2 -11 -3 0
-6 4 -11 8 -11 10 0 9 -30 -2 -48 -4 -7 -2 -12 6 -12 9 0 9 -3 -2 -10 -12 -8
-12 -10 -1 -10 11 0 11 -3 1 -15 -10 -12 -10 -15 1 -15 11 0 11 -2 -1 -10 -8
-5 -10 -10 -3 -10 12 0 12 -17 0 -37 -5 -8 -3 -13 5 -13 10 0 10 -2 -1 -9 -11
-7 -11 -9 0 -14 12 -5 12 -6 0 -6 -11 -1 -11 -4 0 -18 12 -15 12 -16 -1 -8
-13 8 -13 7 -1 -8 11 -14 11 -17 0 -17 -11 0 -11 -2 1 -10 12 -8 12 -10 1 -10
-10 0 -11 -3 -3 -13 9 -10 6 -17 -8 -29 -13 -12 -20 -13 -24 -5 -3 8 -5 8 -5
-2 -1 -11 -4 -11 -18 0 -15 12 -16 12 -8 -1 8 -13 7 -13 -8 -1 -14 11 -17 11
-17 0 0 -11 -2 -11 -10 1 -9 13 -10 13 -10 0 0 -13 -1 -13 -10 0 -9 13 -10 13
-10 0 0 -13 -1 -13 -10 0 -9 13 -10 13 -10 0 0 -13 -1 -13 -10 0 -9 13 -10 13
-10 0 0 -13 -1 -13 -10 0 -9 13 -10 13 -10 0 0 -13 -1 -13 -10 0 -9 13 -10 13
-10 0 0 -13 -1 -13 -10 0 -9 13 -10 13 -10 0 0 -13 -1 -13 -10 0 -9 13 -10 13
-10 0 0 -13 -1 -13 -10 0 -9 13 -10 13 -10 0 0 -13 -1 -13 -10 0 -9 13 -10 13
-10 0 0 -13 -1 -13 -10 0 -5 8 -10 10 -10 4 0 -6 -7 -11 -15 -11 -8 0 -15 5
-15 10 0 5 -8 3 -17 -4 -15 -12 -16 -12 -8 1 8 13 7 13 -8 1 -12 -9 -17 -10
-17 -2 0 7 -5 9 -12 4 -18 -11 -39 -13 -33 -3 6 9 -28 5 -45 -5 -6 -3 -10 0
-10 7 0 9 -3 9 -10 -2 -7 -11 -10 -11 -10 -2 0 8 -5 10 -12 5 -21 -12 -38 -12
-38 0 0 7 -5 5 -10 -3 -8 -12 -10 -12 -10 -1 0 11 -3 11 -17 0 -15 -12 -16
-12 -8 1 8 13 7 13 -8 1 -13 -10 -17 -10 -17 -1 0 8 -4 9 -12 3 -15 -11 -48
-11 -65 0 -7 5 -13 4 -13 -2 0 -10 -19 -9 -37 2 -8 5 -13 3 -13 -5 0 -9 -3 -9
-10 2 -8 12 -10 12 -10 1 0 -11 -3 -11 -17 0 -15 12 -16 12 -8 -1 8 -13 7 -13
-8 -1 -10 7 -17 9 -17 3 0 -11 -18 -11 -37 1 -8 5 -13 3 -13 -5 0 -9 -3 -9
-10 2 -9 13 -10 13 -10 0 0 -9 -3 -11 -8 -5 -11 15 -52 17 -52 2 0 -8 -4 -7
-10 3 -9 13 -10 13 -10 0 0 -13 -1 -13 -10 0 -9 13 -10 13 -10 0 0 -13 -1 -13
-10 0 -9 13 -10 13 -10 0 0 -13 -1 -13 -10 0 -9 13 -10 13 -10 0 0 -13 -1 -13
-10 0 -9 13 -10 13 -10 0 0 -13 -1 -13 -10 0 -9 13 -10 13 -10 0 0 -13 -1 -13
-10 0 -9 13 -10 13 -10 0 0 -13 -1 -13 -10 0 -9 13 -10 13 -10 0 0 -13 -1 -13
-10 0 -9 13 -10 13 -10 0 0 -13 -1 -13 -10 0 -9 13 -10 13 -10 0 0 -13 -1 -13
-10 0 -9 13 -10 13 -10 0 0 -13 -1 -13 -10 0 -9 13 -10 13 -10 0 0 -13 -1 -13
-10 0 -9 13 -10 13 -10 0 0 -13 -1 -13 -10 0 -9 13 -10 13 -10 0 0 -13 -1 -13
-10 0 -5 8 -10 10 -10 4 0 -6 -7 -11 -15 -11 -8 0 -15 5 -15 10 0 5 -8 3 -17
-4 -15 -12 -16 -12 -8 1 8 13 7 13 -8 1 -13 -10 -17 -10 -17 -1 0 10 -3 10
-14 1 -10 -8 -16 -9 -21 -1 -3 6 -12 7 -18 3 -17 -11 -60 -11 -74 0 -9 6 -13
5 -13 -3 0 -10 -3 -10 -14 -1 -10 9 -16 9 -21 1 -5 -8 -11 -8 -21 1 -11 9 -14
8 -14 -2 0 -11 -2 -11 -10 1 -7 11 -10 11 -10 2 0 -9 -6 -10 -17 -4 -16 7 -39
9 -45 2 -8 -7 -65 -5 -75 3 -9 6 -13 5 -13 -3 0 -10 -3 -10 -14 -1 -10 9 -16
9 -21 1 -5 -8 -11 -8 -21 1 -11 9 -14 8 -14 -2 0 -11 -2 -11 -10 1 -8 12 -10
12 -10 1 0 -11 -3 -11 -15 -1 -12 10 -15 10 -15 -1 0 -10 -3 -10 -12 -1 -9 9
-14 8 -22 -1 -6 -7 -10 -10 -9 -8 2 2 -6 12 -18 22 -14 12 -16 18 -7 22 10 4
10 6 -1 6 -11 1 -11 4 0 18 8 9 9 14 3 10 -14 -8 -13 45 1 55 6 5 4 8 -5 8
-13 0 -13 1 0 10 11 7 11 10 2 10 -7 0 -10 4 -7 10 10 17 14 51 5 45 -10 -6
-8 15 3 33 5 7 3 12 -4 12 -8 0 -7 5 2 17 12 15 12 16 -1 8 -13 -8 -13 -7 -1
8 7 9 9 17 4 17 -5 0 -10 7 -10 15 0 8 5 15 11 15 6 0 4 5 -4 10 -13 9 -13 10
0 10 13 0 13 1 0 10 -13 9 -13 10 0 10 13 0 13 1 0 10 -13 9 -13 10 0 10 13 0
13 1 0 10 -13 9 -13 10 0 10 13 0 13 1 0 10 -13 9 -13 10 0 10 13 0 13 1 0 10
-13 9 -13 10 0 10 13 0 13 1 0 10 -13 9 -13 10 0 10 13 0 13 1 0 10 -13 9 -13
10 0 10 13 0 13 1 0 10 -13 9 -13 10 0 10 13 0 13 1 0 10 -13 9 -13 10 0 10
13 0 13 1 0 10 -13 9 -13 10 0 10 13 0 13 1 0 10 -13 9 -13 10 0 10 13 0 13 1
0 10 -12 8 -12 10 -1 10 11 0 11 3 0 17 -11 13 -11 15 -1 9 11 -7 11 -4 1 13
-8 11 -16 17 -19 13 -8 -11 -40 -11 -40 0 0 5 -6 6 -12 1 -17 -10 -39 -13 -34
-5 2 4 -9 7 -24 7 -16 1 -27 -2 -24 -6 5 -9 -17 -6 -33 4 -7 5 -13 4 -13 -2 0
-10 -19 -9 -37 2 -8 5 -13 3 -13 -5 0 -9 -3 -9 -10 2 -9 13 -10 13 -10 0 0 -9
-3 -11 -8 -5 -4 6 -15 11 -24 11 -17 2 -18 -27 -18 -482z"/>
<path d="M850 956 c0 -2 8 -10 18 -17 15 -13 16 -12 3 4 -13 16 -21 21 -21 13z"/>
</g>
</svg>
