<?xml version="1.0" standalone="no"?>
<!DOCTYPE svg PUBLIC "-//W3C//DTD SVG 20010904//EN"
 "http://www.w3.org/TR/2001/REC-SVG-20010904/DTD/svg10.dtd">
<svg version="1.0" xmlns="http://www.w3.org/2000/svg"
 width="512.000000pt" height="512.000000pt" viewBox="0 0 512.000000 512.000000"
 preserveAspectRatio="xMidYMid meet">
<metadata>
Created by potrace 1.14, written by Peter Selinger 2001-2017
</metadata>
<g transform="translate(0.000000,512.000000) scale(0.100000,-0.100000)"
fill="#000000" stroke="none">
<path d="M1826 4102 c-3 -5 1 -9 9 -9 8 0 12 4 9 9 -3 4 -7 8 -9 8 -2 0 -6 -4
-9 -8z"/>
<path d="M3293 4099 c-6 -6 -9 -18 -6 -27 4 -9 2 -13 -4 -9 -6 4 -13 2 -15 -5
-3 -7 -7 -5 -11 6 -4 10 -3 15 3 11 6 -3 10 -2 10 3 0 6 -11 9 -24 8 -13 0
-24 -5 -23 -10 1 -6 -7 -11 -18 -13 -11 -1 -14 0 -7 3 16 8 15 21 -2 21 -17 0
-14 -26 5 -38 23 -14 0 -10 -31 6 -19 10 -31 11 -35 5 -4 -6 -10 -8 -15 -5 -5
3 -12 1 -15 -5 -5 -8 -12 -7 -23 2 -13 11 -14 11 -7 -2 14 -23 17 -58 5 -65
-5 -3 -7 0 -4 9 7 19 -24 15 -37 -5 -7 -12 -9 -11 -9 3 0 9 6 18 13 21 9 3 9
8 -2 18 -8 8 -11 9 -8 3 4 -7 0 -17 -8 -24 -7 -6 -13 -17 -11 -23 1 -7 1 -9
-1 -4 -3 4 -9 5 -13 2 -5 -3 -12 0 -16 6 -5 8 -3 9 7 4 12 -8 12 -6 0 8 -7 9
-16 17 -19 17 -3 0 -2 -3 1 -6 10 -10 -12 -44 -26 -40 -6 1 -9 1 -4 -1 4 -3 4
-10 0 -16 -3 -7 2 -4 13 5 14 12 23 14 34 7 13 -9 13 -10 0 -6 -8 2 -21 -3
-28 -10 -12 -11 -17 -11 -30 -1 -13 11 -14 10 -4 -9 17 -30 15 -41 -3 -17 -11
15 -15 16 -16 4 -1 -8 -1 -19 0 -23 1 -5 -3 -6 -9 -2 -18 11 -49 -5 -44 -23 5
-15 4 -15 -6 1 -11 18 -5 41 9 32 5 -2 16 2 26 9 14 10 15 15 5 21 -9 5 -11 4
-6 -3 6 -10 -7 -17 -17 -9 -12 8 -38 -30 -34 -50 2 -13 2 -21 -1 -19 -3 3 -13
-4 -23 -16 -11 -11 -19 -16 -19 -11 0 6 7 16 15 23 8 7 12 17 9 22 -7 11 -19
1 -19 -15 0 -7 -6 -13 -12 -13 -24 -3 -25 -4 -13 -20 8 -8 9 -14 4 -13 -15 5
-74 -31 -74 -44 0 -8 4 -7 10 3 8 13 11 13 22 1 10 -11 10 -12 0 -7 -7 4 -15
0 -19 -10 -5 -14 -8 -13 -19 7 -7 13 -13 18 -14 11 0 -7 -4 -11 -9 -8 -11 7
-8 -21 4 -31 4 -4 5 -3 1 4 -3 6 -2 14 3 17 8 5 8 -2 2 -33 -1 -2 -13 4 -27
14 -15 9 -24 13 -20 7 7 -13 -28 -44 -40 -35 -5 5 -1 -1 9 -13 9 -11 17 -27
16 -35 0 -8 -4 -6 -9 6 -5 12 -9 14 -9 6 -1 -11 -5 -10 -16 5 -13 16 -14 16
-9 1 5 -13 2 -16 -12 -11 -17 5 -16 4 1 -8 20 -13 20 -13 -2 -35 -13 -12 -23
-18 -23 -12 0 6 -8 5 -21 -2 -17 -9 -24 -8 -38 6 -9 10 -11 15 -4 11 6 -3 13
-3 16 1 2 5 2 2 1 -4 -2 -7 1 -13 6 -13 6 0 10 4 10 9 0 6 8 8 18 7 9 -2 22 2
28 8 9 9 -5 12 -58 11 -37 -1 -66 0 -63 3 8 8 -15 43 -25 37 -5 -3 -12 0 -16
6 -4 8 -3 9 4 5 7 -4 12 -1 12 8 0 9 -6 16 -12 16 -9 0 -8 4 2 10 8 5 10 10 5
10 -6 0 -16 -5 -22 -11 -7 -7 -12 -6 -17 6 -3 9 -2 13 3 10 5 -3 13 0 17 6 4
7 3 9 -4 5 -14 -8 -44 23 -35 37 5 9 3 9 -8 1 -23 -17 -44 -11 -44 13 0 12 -5
26 -9 30 -5 4 -6 3 -3 -3 4 -7 -3 -11 -18 -11 -23 0 -24 1 -8 12 10 8 15 17
10 21 -4 4 -7 2 -7 -4 0 -7 -5 -12 -11 -12 -5 0 -7 5 -4 10 3 6 -1 10 -9 10
-10 0 -13 -6 -10 -17 5 -15 4 -15 -4 -4 -7 9 -7 21 -2 31 6 12 5 17 -5 17 -8
0 -12 -4 -9 -8 2 -4 -1 -11 -7 -15 -8 -5 -9 -3 -4 6 6 9 4 12 -7 8 -8 -4 -15
0 -15 7 0 8 5 13 10 12 5 -1 12 5 14 13 4 12 3 12 -5 1 -8 -11 -11 -11 -18 1
-12 20 -42 29 -50 16 -5 -7 -2 -8 6 -3 9 5 11 4 6 -3 -4 -8 -2 -10 7 -6 8 3
18 1 22 -5 7 -12 -17 -10 -48 4 -12 5 -14 11 -8 19 7 8 4 12 -10 14 -48 4 -48
5 -38 25 6 10 8 21 5 25 -3 3 -6 0 -6 -7 0 -7 -5 -9 -12 -5 -6 4 -8 3 -4 -4 3
-6 2 -14 -4 -17 -6 -4 -9 -1 -8 6 2 6 -3 14 -11 17 -8 2 -11 0 -7 -6 3 -6 -1
-9 -9 -8 -15 2 -19 16 -8 26 4 3 3 -1 -2 -9 -5 -9 -4 -12 3 -8 12 8 10 32 -3
44 -4 4 -5 3 -1 -4 4 -7 -6 -18 -25 -27 -32 -16 -32 -16 -14 4 15 16 16 23 6
33 -10 9 -11 8 -5 -7 6 -16 5 -17 -14 -7 -12 7 -22 9 -22 6 0 -3 -9 4 -20 15
-12 12 -26 17 -36 13 -11 -4 -15 -3 -10 5 6 10 -28 9 -62 -3 -7 -3 -15 2 -19
10 -4 13 -8 13 -21 3 -9 -7 -13 -8 -9 -2 8 14 -56 14 -65 0 -5 -7 -8 -7 -8 2
0 10 -4 10 -16 -2 -10 -11 -21 -13 -32 -7 -9 4 -23 6 -31 3 -8 -2 -11 0 -8 5
3 5 0 10 -7 10 -8 0 -11 -8 -9 -18 3 -9 -1 -20 -8 -24 -8 -5 -10 -4 -5 3 4 7
2 20 -3 29 -7 12 -10 14 -11 4 0 -11 -3 -11 -17 0 -16 13 -17 12 -4 -3 7 -10
18 -15 24 -11 6 3 7 1 3 -5 -5 -9 -13 -9 -26 -2 -13 7 -21 7 -26 -2 -4 -6 -3
-8 3 -5 6 4 17 -1 24 -11 11 -15 11 -15 -1 -4 -12 10 -17 9 -30 -8 -15 -20
-16 -20 -16 -1 0 11 3 18 6 16 3 -2 6 9 7 23 l1 27 -14 -27 c-8 -15 -20 -26
-27 -24 -6 1 -9 1 -4 -1 4 -3 4 -10 1 -15 -4 -7 -2 -8 4 -4 7 4 12 2 12 -3 0
-6 -8 -11 -17 -11 -15 0 -16 -2 -3 -10 9 -6 10 -10 3 -10 -6 0 -15 5 -18 11
-5 6 -12 4 -21 -8 -11 -13 -14 -14 -12 -3 2 8 7 18 13 22 6 5 5 12 -4 20 -8 7
-11 8 -8 3 3 -6 -1 -19 -9 -29 -10 -15 -16 -16 -27 -7 -11 9 -17 8 -26 -3 -7
-8 -20 -12 -29 -9 -13 4 -12 2 3 -11 16 -14 17 -17 3 -12 -12 3 -15 1 -11 -9
3 -8 10 -12 17 -8 6 3 7 2 3 -3 -5 -5 -14 -9 -20 -9 -7 -1 -11 -6 -10 -12 3
-12 -27 -10 -47 2 -6 3 -10 -1 -10 -10 0 -10 5 -13 13 -9 6 4 9 3 4 -1 -4 -5
-17 -10 -30 -12 -12 -2 -26 -9 -32 -15 -7 -8 -6 -9 3 -3 11 6 12 3 3 -14 -7
-11 -14 -21 -17 -21 -3 0 -2 5 2 12 4 7 3 8 -5 4 -6 -4 -18 -2 -26 4 -9 7 -15
8 -15 2 0 -5 7 -12 15 -16 23 -8 7 -33 -20 -31 -18 2 -22 -1 -18 -12 4 -9 -2
-22 -12 -29 -10 -8 -15 -14 -11 -14 5 0 3 -7 -4 -15 -9 -11 -17 -12 -31 -4
-15 7 -19 7 -17 -3 2 -7 -3 -12 -10 -10 -9 1 -7 -6 5 -25 17 -27 17 -27 0 -14
-16 12 -17 12 -10 -5 6 -16 5 -17 -9 -6 -13 10 -18 10 -24 1 -4 -7 -3 -9 3 -6
6 4 19 -3 29 -16 10 -12 13 -17 5 -11 -13 12 -51 7 -51 -7 0 -4 9 -6 20 -4 11
2 18 0 15 -5 -3 -4 -16 -7 -28 -6 -15 2 -24 -2 -24 -11 0 -9 7 -11 21 -8 19 6
20 5 4 -8 -10 -8 -15 -17 -11 -20 3 -4 1 -7 -5 -7 -5 0 -12 3 -15 8 -2 4 -2 0
0 -8 3 -8 5 -19 6 -25 1 -5 7 -14 12 -18 6 -5 0 -5 -12 -2 -13 4 -23 2 -23 -4
0 -6 -8 -8 -17 -5 -14 5 -15 4 -4 -4 8 -6 19 -9 25 -8 6 2 8 1 4 -1 -3 -2 -4
-16 -2 -31 3 -20 2 -23 -5 -12 -5 8 -7 18 -4 23 3 5 -4 4 -16 -2 -11 -7 -21
-14 -21 -17 0 -3 4 -3 9 0 5 3 12 -1 15 -10 9 -24 7 -31 -4 -14 -8 13 -10 13
-10 1 0 -11 -4 -9 -16 5 -14 18 -15 18 -4 -3 6 -13 15 -23 20 -23 6 0 10 -8
10 -17 0 -11 -3 -14 -8 -7 -8 13 -44 15 -36 2 3 -5 9 -6 14 -3 4 3 10 -2 14
-10 3 -10 -1 -15 -12 -15 -13 0 -12 -3 5 -15 28 -19 20 -49 -11 -41 -19 5 -20
4 -4 -8 10 -7 15 -16 11 -19 -3 -4 2 -19 12 -34 16 -25 16 -26 2 -14 -23 18
-34 6 -13 -14 21 -21 21 -31 -1 -14 -15 13 -15 12 -3 -10 11 -21 10 -23 -4
-18 -8 3 -18 1 -22 -5 -4 -6 -3 -8 4 -4 6 3 17 -1 25 -9 16 -16 12 -54 -7 -68
-7 -6 -4 -7 6 -3 10 3 17 1 15 -4 -1 -5 7 -16 18 -25 18 -15 17 -15 -15 0
l-35 16 31 -28 c33 -30 66 -82 44 -68 -9 5 -10 1 -5 -16 7 -23 7 -23 -8 -4 -9
11 -11 22 -6 23 5 2 9 8 9 13 0 6 -5 7 -12 3 -6 -4 -8 -3 -5 3 4 6 -1 17 -10
24 -12 10 -14 10 -9 2 4 -8 2 -13 -5 -13 -7 0 -4 -7 7 -15 10 -8 15 -15 10
-15 -5 0 -3 -6 3 -14 6 -8 11 -18 10 -22 -3 -20 2 -24 21 -14 16 8 20 8 18 -2
-2 -7 3 -12 11 -10 12 3 12 0 2 -12 -8 -10 -9 -16 -1 -21 13 -8 13 -25 -1 -25
-5 0 -7 4 -4 10 3 6 -1 7 -10 3 -12 -4 -13 -8 -5 -13 7 -5 9 -13 5 -20 -5 -9
-4 -11 3 -6 16 10 15 -7 0 -23 -11 -10 -10 -12 2 -9 9 2 14 -3 12 -12 -2 -8 0
-12 4 -7 12 11 43 -23 37 -41 -4 -14 -3 -15 5 -2 7 9 7 19 2 26 -6 6 -6 15 -2
19 4 5 0 5 -8 0 -8 -5 -12 -4 -7 0 4 5 15 10 24 11 11 2 13 0 4 -9 -8 -8 -6
-16 7 -31 9 -11 11 -16 5 -12 -7 4 -13 2 -13 -3 0 -6 5 -11 10 -11 6 0 10 -7
10 -15 0 -8 5 -15 12 -15 6 0 9 -2 6 -5 -8 -9 -38 6 -32 16 3 5 0 9 -5 9 -16
0 -13 -20 4 -26 8 -4 13 -9 10 -14 -2 -4 8 -6 23 -4 15 2 19 1 10 -2 -17 -5
-14 -34 4 -34 5 0 6 5 3 10 -3 6 -1 10 4 10 17 0 13 -18 -6 -30 -17 -11 -17
-11 -1 -6 20 6 34 -10 16 -17 -10 -4 -10 -6 0 -6 7 -1 10 -5 7 -11 -3 -6 1 -7
9 -4 11 4 16 0 16 -11 0 -10 -5 -14 -12 -10 -7 4 -3 -2 9 -13 12 -11 19 -23
15 -27 -4 -5 -1 -5 6 -1 9 5 15 1 19 -13 3 -12 9 -21 14 -21 5 0 7 -6 5 -12
-1 -7 -1 -10 1 -5 3 4 12 7 20 7 11 0 13 -4 5 -12 -6 -8 -6 -21 -1 -33 9 -18
9 -18 5 3 -2 12 0 22 5 22 5 0 9 -7 9 -16 0 -9 5 -12 13 -8 10 6 10 4 0 -7 -7
-7 -13 -17 -13 -23 0 -5 10 2 22 15 12 14 19 17 15 8 -3 -9 -1 -21 5 -27 6 -6
6 -12 -3 -17 -7 -5 -10 -4 -5 3 3 6 3 13 -2 16 -4 2 -8 -6 -8 -19 0 -13 3 -22
7 -19 4 2 10 0 14 -5 3 -5 15 -8 28 -6 20 4 21 3 5 -9 -26 -19 -22 -27 8 -16
16 7 23 7 19 0 -5 -9 6 -14 26 -12 3 1 6 -6 6 -13 0 -11 -4 -12 -13 -4 -8 7
-14 7 -19 -1 -3 -6 -11 -7 -17 -4 -7 4 -8 2 -4 -5 6 -9 11 -9 24 1 13 11 15
10 10 -10 -5 -19 -4 -21 8 -11 11 9 14 8 14 -2 0 -11 2 -11 10 1 7 12 9 11 9
-5 1 -37 4 -55 9 -50 7 6 38 -38 34 -48 -1 -5 2 -6 8 -2 8 5 8 11 0 20 -8 10
-8 15 1 21 7 4 9 3 5 -4 -3 -6 -1 -14 5 -17 5 -4 8 -13 6 -19 -3 -7 1 -13 9
-13 7 0 11 5 8 11 -3 6 4 -1 16 -16 13 -17 27 -25 38 -22 14 5 14 4 2 -4 -8
-6 -17 -9 -21 -6 -4 2 -9 -2 -12 -10 -5 -11 0 -13 24 -6 16 5 27 5 24 0 -3 -5
-1 -11 5 -15 5 -3 10 -11 10 -18 0 -6 -7 -2 -16 9 -14 18 -15 18 -4 -4 8 -16
15 -20 23 -13 8 6 18 5 30 -4 14 -10 15 -14 5 -19 -10 -5 -10 -7 0 -12 6 -3
10 -10 7 -15 -4 -5 1 -6 10 -3 11 5 14 2 9 -10 -3 -9 -1 -16 6 -16 6 0 8 -5 4
-12 -4 -6 -3 -8 4 -5 5 4 8 17 6 30 -4 22 -4 22 6 -1 5 -13 8 -27 5 -32 -3 -4
3 -14 12 -21 10 -8 14 -9 10 -2 -4 6 -3 15 3 18 6 4 10 3 9 -2 -4 -21 2 -34
13 -27 8 5 9 2 5 -9 -7 -19 4 -22 20 -6 7 7 10 3 8 -14 -3 -22 0 -25 23 -21
l27 4 -25 -16 c-24 -14 -24 -15 -2 -11 24 6 28 -3 10 -21 -11 -11 -3 -12 41 0
8 2 15 -7 17 -20 3 -16 0 -21 -8 -16 -7 5 -8 3 -4 -5 5 -7 14 -10 22 -7 8 3
14 0 13 -7 -3 -28 2 -39 16 -34 8 4 17 2 20 -3 4 -6 1 -10 -6 -10 -7 0 -10 -3
-6 -6 3 -3 11 -3 17 1 8 5 8 11 -1 21 -6 7 -16 11 -22 7 -6 -4 -7 -1 -2 7 6 9
4 11 -5 5 -9 -5 -11 -4 -6 4 6 9 12 9 24 -1 26 -20 32 -32 26 -51 -3 -10 1
-19 10 -23 9 -3 13 -10 10 -15 -3 -5 3 -6 12 -2 10 4 15 2 11 -3 -3 -6 3 -15
14 -22 16 -10 21 -10 25 3 3 8 11 12 16 9 6 -4 5 -10 -3 -15 -7 -4 -10 -11 -6
-15 3 -4 14 -1 24 7 9 8 14 9 10 2 -4 -7 2 -20 13 -31 19 -18 20 -21 5 -36 -9
-9 -12 -16 -6 -16 5 0 16 9 24 20 13 18 15 19 21 5 3 -9 2 -13 -4 -10 -15 9
-12 -5 5 -21 11 -11 15 -12 15 -3 0 7 3 9 6 6 4 -4 1 -13 -6 -22 -15 -18 -7
-19 21 -5 15 9 21 7 26 -7 4 -10 11 -22 17 -26 6 -5 3 -6 -9 -2 -15 4 -17 3
-9 -5 6 -6 20 -12 32 -13 11 0 20 -6 19 -12 -1 -5 7 -9 18 -7 16 2 17 1 5 -7
-10 -7 -19 -6 -30 4 -14 12 -16 12 -16 -4 0 -12 5 -17 15 -13 11 4 13 1 8 -14
-7 -18 -6 -18 7 -1 16 20 28 22 25 5 -1 -7 -1 -20 0 -28 1 -12 4 -12 12 3 5 9
15 17 22 17 8 0 8 -3 -1 -9 -8 -4 -14 -11 -15 -15 -3 -11 32 -28 42 -21 5 3
12 1 16 -5 4 -6 11 -8 16 -5 5 4 9 2 9 -4 0 -5 -9 -9 -19 -8 -11 0 -17 5 -15
9 3 4 -2 5 -11 2 -19 -8 -14 -14 12 -18 10 -2 17 -10 15 -19 -1 -8 2 -18 8
-22 5 -3 7 0 4 8 -3 8 3 20 13 28 17 13 17 13 3 -5 -14 -18 -13 -19 3 -13 11
4 25 -1 36 -12 11 -11 21 -19 23 -18 1 1 2 0 0 -2 -1 -2 4 -12 10 -21 7 -9 1
-3 -15 12 -15 16 -33 26 -39 22 -7 -5 -8 -3 -3 6 5 9 4 11 -4 6 -6 -4 -9 -12
-5 -17 3 -6 8 -8 11 -5 8 7 43 -27 37 -36 -3 -5 0 -7 7 -6 7 2 13 -2 14 -9 0
-6 4 -15 9 -20 5 -4 7 -4 4 2 -3 6 0 16 8 23 9 8 14 9 14 2 0 -6 5 -8 12 -4 6
4 8 3 5 -2 -7 -13 1 -24 36 -51 29 -22 60 -21 51 1 -3 7 2 19 10 26 9 7 13 17
9 24 -8 14 27 -13 45 -34 10 -13 11 -13 6 1 -3 10 0 20 5 24 6 3 8 11 5 17 -5
7 -1 9 9 5 11 -4 14 -2 10 9 -6 16 -22 19 -24 4 -3 -25 -4 -29 -9 -33 -3 -3
-11 1 -18 9 -7 8 -8 14 -2 14 5 0 19 9 31 21 12 12 27 18 36 15 12 -5 14 -1
10 14 -3 11 0 18 7 17 6 -1 10 5 8 13 -3 12 -1 13 9 3 18 -18 34 -16 20 1 -8
9 -8 16 -2 20 5 4 14 -2 20 -11 6 -11 11 -13 11 -5 0 7 4 11 9 7 5 -3 13 0 18
7 11 19 14 50 4 43 -5 -3 -13 0 -17 6 -4 8 -3 9 4 5 7 -4 12 -2 12 4 0 7 5 6
14 -2 8 -7 12 -16 10 -20 -2 -4 0 -9 5 -12 5 -4 8 2 6 11 -2 18 21 73 31 73 2
0 0 -9 -6 -19 -12 -24 -13 -41 -1 -22 5 8 17 16 26 17 9 1 20 6 23 10 4 4 -1
4 -10 1 -12 -4 -18 -1 -18 8 0 24 4 29 23 32 10 2 16 -1 12 -6 -3 -5 0 -13 6
-17 7 -4 9 -3 6 3 -4 5 3 20 14 31 18 20 17 27 -4 23 -5 -1 -6 3 -2 9 3 6 11
8 16 5 5 -4 18 0 30 8 13 9 16 17 10 22 -6 3 -11 11 -11 16 0 6 7 3 16 -5 8
-9 21 -16 27 -16 8 0 8 3 2 8 -5 4 -17 16 -25 27 -14 18 -14 19 1 7 13 -10 19
-9 29 3 16 19 31 19 24 0 -4 -8 -10 -13 -14 -10 -5 3 -11 1 -14 -4 -4 -5 2 -8
11 -7 9 2 19 8 21 14 2 7 7 10 11 8 4 -3 7 4 7 14 0 10 -6 16 -12 13 -7 -2
-15 0 -19 6 -4 7 0 8 11 4 12 -5 15 -3 9 6 -6 10 -3 11 14 2 22 -12 28 -2 10
16 -8 8 -6 11 7 10 13 -2 18 4 17 18 -1 11 0 15 3 8 6 -13 34 -6 34 9 0 5 -5
6 -12 2 -7 -4 -8 -3 -4 5 4 6 13 8 19 4 18 -11 38 -12 31 -2 -3 5 -9 7 -13 5
-3 -3 -7 4 -7 14 0 18 19 21 33 5 4 -4 1 -5 -7 0 -12 6 -13 5 -3 -5 19 -20 27
-5 12 22 -12 22 -11 22 6 8 17 -14 18 -13 12 2 -3 10 -1 20 5 24 7 4 8 3 4 -4
-4 -7 -3 -12 3 -12 6 0 8 -8 4 -17 -3 -10 -3 -15 1 -11 4 3 9 14 11 25 1 10 8
17 14 15 6 -1 11 3 11 9 0 6 -6 9 -13 6 -8 -3 -20 -1 -28 5 -12 8 -12 9 1 5 8
-2 22 2 31 10 9 8 26 15 37 16 11 0 20 6 19 12 -1 5 4 9 11 7 8 -1 11 2 6 9
-5 9 -2 10 11 5 16 -6 16 -4 4 11 -12 15 -12 16 3 10 19 -7 34 8 18 18 -13 8
-3 25 13 25 7 0 6 -4 -3 -10 -8 -5 -10 -10 -5 -10 19 0 55 31 49 42 -5 7 -1 9
9 5 12 -4 14 -2 10 10 -5 12 -3 14 8 8 11 -7 12 -6 2 7 -7 8 -9 18 -5 22 4 4
7 13 7 19 0 7 7 12 15 12 8 1 14 7 12 14 -1 7 2 10 7 7 5 -4 14 2 20 11 6 10
11 14 11 8 0 -5 -14 -24 -32 -42 -18 -18 -28 -33 -22 -33 5 0 15 9 22 20 7 12
18 18 24 14 7 -4 8 -3 4 5 -4 7 2 15 16 20 13 6 18 10 12 10 -7 1 -14 8 -18
16 -4 13 -2 13 14 5 30 -16 34 -12 9 11 -13 11 -17 17 -9 13 25 -14 49 -14 56
-2 4 7 3 8 -4 4 -19 -11 -43 7 -32 24 8 12 10 11 10 -5 1 -20 1 -20 15 -1 8
10 12 23 9 28 -3 5 -2 8 3 7 19 -3 33 2 33 12 0 5 -5 7 -12 3 -6 -4 -8 -3 -4
4 3 6 15 9 26 7 26 -5 35 12 18 32 -12 15 -11 15 9 5 28 -15 30 -15 30 2 0 8
-6 12 -15 8 -11 -4 -13 -1 -8 7 5 7 17 11 27 8 11 -3 17 -1 13 4 -3 5 0 9 5 9
6 0 11 5 11 11 0 8 -4 8 -14 0 -11 -9 -16 -9 -22 0 -4 7 -3 9 4 5 5 -3 12 0
15 6 3 10 8 10 21 -1 9 -8 16 -10 15 -5 -3 19 1 35 10 30 4 -3 7 6 5 19 -1 14
2 27 7 31 5 3 7 10 4 15 -3 5 2 6 11 2 14 -5 15 -8 3 -17 -16 -12 -19 -37 -4
-33 5 1 10 7 10 12 0 19 26 55 35 50 6 -4 7 1 3 11 -5 13 -3 15 7 9 9 -6 11
-4 5 5 -7 11 -12 9 -23 -8 -8 -12 -19 -22 -24 -22 -5 0 -2 7 6 16 9 8 14 19
11 24 -3 5 7 7 21 4 23 -4 25 -3 15 10 -8 10 -9 16 -1 21 6 3 8 11 5 16 -4 5
4 5 19 -1 17 -6 27 -6 32 2 4 6 3 9 -2 5 -5 -3 -17 1 -27 8 -16 11 -16 13 -2
19 9 3 14 2 11 -3 -3 -5 6 -8 19 -8 23 0 24 1 8 13 -16 12 -15 13 14 10 19 -2
30 1 27 6 -3 5 -12 7 -20 4 -10 -4 -13 1 -10 17 3 12 5 24 6 27 2 3 2 9 1 13
-1 5 3 6 9 2 5 -3 10 -1 10 5 0 6 5 8 10 5 6 -3 10 3 10 14 0 12 5 21 11 21 5
0 7 -6 3 -12 -4 -7 2 -5 14 6 12 10 28 16 37 12 9 -3 13 -2 10 4 -3 6 -12 10
-19 10 -7 0 -12 13 -12 30 0 17 4 30 9 30 5 0 7 -7 4 -15 -4 -8 -2 -17 2 -19
5 -3 7 5 7 17 -3 29 4 42 14 27 5 -8 9 -8 13 3 6 15 -15 18 -29 4 -4 -4 -12
-7 -18 -7 -6 0 1 8 17 18 15 10 24 22 20 25 -3 4 -1 7 6 7 7 0 10 4 6 9 -3 5
-1 12 5 16 6 4 7 11 4 17 -5 7 -2 8 6 3 10 -6 12 -4 6 10 -6 16 -4 16 11 4 12
-10 15 -10 9 -1 -4 7 -3 19 4 27 9 10 7 16 -7 24 -11 6 -13 11 -5 11 7 0 11 4
8 9 -4 5 0 11 6 14 9 3 7 10 -7 21 -19 15 -19 16 -1 9 12 -4 17 -3 13 4 -3 5
5 19 18 31 17 15 23 28 19 46 -2 14 -1 27 4 30 4 2 8 -7 8 -21 -1 -15 5 -28
14 -30 13 -4 13 -3 0 6 -13 10 -13 11 0 11 12 0 13 2 1 9 -16 11 -5 34 12 24
7 -4 6 0 -2 10 -11 14 -11 17 0 17 11 0 11 2 -1 10 -13 9 -13 11 0 20 12 8 13
10 1 10 -8 0 -12 3 -8 6 3 4 -3 14 -15 24 -17 13 -18 17 -5 17 9 0 14 -4 11
-9 -3 -4 0 -8 5 -8 14 0 14 17 0 25 -6 4 -8 13 -5 21 3 7 -2 18 -11 23 -14 7
-13 10 5 15 12 4 22 12 22 17 0 6 -4 7 -10 4 -13 -8 -13 1 0 25 7 13 7 21 0
25 -6 4 -9 1 -8 -6 2 -6 -4 -14 -12 -16 -13 -4 -13 -3 0 6 8 6 11 11 6 11 -5
0 -1 10 10 22 10 12 14 18 8 15 -7 -4 -14 0 -17 8 -4 10 -1 12 11 9 12 -4 11
-2 -3 8 -24 16 -30 35 -14 54 9 11 9 14 0 14 -7 0 -10 4 -7 8 2 4 1 14 -3 21
-6 10 -10 9 -14 -4 -4 -9 -3 -14 1 -11 5 3 9 -1 9 -9 0 -18 -17 -20 -18 -2 -1
6 -1 31 -1 55 -1 28 -4 39 -9 30 -7 -10 -9 -11 -9 0 0 7 -5 10 -10 7 -6 -4
-10 -3 -9 2 1 4 0 10 -1 13 -8 22 -7 39 3 34 7 -3 4 1 -5 9 -18 14 -25 33 -9
23 5 -3 15 2 22 11 12 15 12 16 -1 8 -22 -14 -50 -16 -50 -5 0 6 5 10 10 10 6
0 5 6 -2 14 -9 9 -17 11 -25 5 -7 -7 -14 -6 -19 2 -4 7 -3 9 3 6 6 -4 13 0 17
8 3 8 1 17 -5 20 -5 4 -7 11 -3 16 3 5 2 9 -3 8 -24 -4 -35 3 -31 19 4 12 -1
18 -13 18 -13 0 -15 -4 -8 -12 7 -8 6 -14 -1 -19 -6 -4 -10 -3 -9 2 4 21 -2
24 -18 12 -16 -13 -17 -12 -5 3 8 10 11 26 7 38 -5 17 -9 19 -21 9 -13 -10
-14 -8 -10 13 3 17 0 25 -10 25 -10 0 -11 -4 -3 -13 7 -8 6 -14 -2 -20 -7 -4
-9 -3 -5 4 3 6 1 14 -5 17 -5 4 -8 14 -4 22 4 13 3 14 -10 3 -13 -11 -14 -10
-9 6 4 10 4 16 -1 12 -4 -4 -14 0 -22 8 -8 8 -18 12 -23 9 -5 -3 -11 -1 -15 5
-4 6 -11 7 -17 4 -7 -4 -8 -2 -4 5 6 9 11 9 22 0 10 -8 14 -8 14 0 0 6 -3 11
-7 12 -5 0 -23 2 -40 3 -31 2 -60 16 -35 16 7 0 12 5 12 11 0 5 -5 7 -12 3 -7
-5 -8 -3 -3 6 6 10 12 7 25 -10 13 -17 19 -20 25 -10 5 9 4 11 -3 6 -11 -6
-16 5 -13 26 0 4 -8 5 -19 2 -11 -2 -29 -6 -40 -8 -23 -5 -36 9 -19 20 7 4 9
3 5 -4 -3 -6 1 -9 11 -8 9 2 19 9 21 17 3 11 1 11 -7 -1 -10 -14 -16 -7 -11
15 1 6 -4 5 -11 -2 -12 -12 -42 -7 -34 6 2 4 -2 8 -10 8 -8 0 -11 -5 -8 -10 3
-5 0 -7 -8 -5 -8 3 -13 14 -11 24 3 18 3 18 -11 0 -12 -17 -12 -22 -1 -34 25
-25 15 -26 -13 -1 -16 13 -32 27 -36 30 -5 4 3 5 17 4 14 -2 26 1 26 7 0 6 -6
8 -12 5 -18 -6 -60 11 -53 22 3 6 -6 8 -21 5 -21 -4 -25 -2 -20 11 3 10 2 14
-5 10 -6 -4 -8 -13 -5 -21 6 -16 -10 -28 -19 -14 -5 8 -11 8 -19 1 -9 -7 -20
-3 -38 14 -24 22 -27 22 -33 7 -6 -15 -8 -15 -15 3 -7 17 -9 17 -9 3 -1 -10
-6 -18 -12 -18 -6 0 -8 9 -4 23 l6 22 -14 -23 c-7 -12 -16 -20 -20 -16 -4 4
-2 13 4 21 14 16 7 17 -8 2z m-1577 -28 c8 7 14 7 14 1 0 -12 -26 -23 -34 -15
-3 4 -6 11 -5 17 0 6 3 5 6 -2 4 -10 8 -10 19 -1z m1674 -6 c11 -13 10 -14 -4
-9 -9 3 -16 10 -16 15 0 13 6 11 20 -6z m-1545 -5 c3 -5 1 -10 -4 -10 -6 0
-11 5 -11 10 0 6 2 10 4 10 3 0 8 -4 11 -10z m1669 -11 c-3 -5 -10 -7 -15 -3
-5 3 -7 10 -3 15 3 5 10 7 15 3 5 -3 7 -10 3 -15z m-358 -1 c4 -7 3 -8 -4 -4
-7 4 -12 2 -12 -3 0 -6 -9 -11 -21 -11 -13 0 -18 -4 -13 -12 4 -7 3 -8 -5 -4
-9 6 -9 11 0 22 6 7 15 12 19 9 5 -3 11 -1 15 5 8 13 12 13 21 -2z m-1261 -27
c-9 -8 -36 -10 -30 -2 2 4 11 8 20 8 8 0 13 -3 10 -6z m42 -7 c-3 -3 -12 -4
-19 -1 -8 3 -5 6 6 6 11 1 17 -2 13 -5z m1712 -27 c0 -9 -2 -8 -6 1 -2 6 -10
9 -15 6 -7 -4 -8 -2 -4 5 9 13 26 5 25 -12z m-2296 0 c3 -8 -3 -14 -15 -14
-16 -2 -17 1 -8 13 15 17 17 17 23 1z m981 -212 c-4 -8 -11 -12 -16 -9 -6 4
-5 10 3 15 19 12 19 11 13 -6z m1636 -35 c0 -5 -5 -10 -11 -10 -5 0 -7 5 -4
10 3 6 8 10 11 10 2 0 4 -4 4 -10z m-1311 -28 c-1 -15 -2 -15 -6 1 -5 19 -24
14 -19 -6 1 -7 1 -9 -1 -4 -3 4 -10 4 -16 0 -7 -3 -4 3 7 15 20 23 37 21 35
-6z m1340 15 c8 -10 7 -14 -2 -14 -8 0 -14 6 -14 14 0 7 1 13 2 13 2 0 8 -6
14 -13z m-2945 -18 c-3 -5 -10 -7 -15 -3 -5 3 -7 10 -3 15 3 5 10 7 15 3 5 -3
7 -10 3 -15z m2969 -44 c-3 -9 -8 -14 -10 -11 -3 3 -2 9 2 15 9 16 15 13 8 -4z
m-1489 -63 c3 -5 -1 -9 -9 -9 -8 0 -12 4 -9 9 3 4 7 8 9 8 2 0 6 -4 9 -8z
m1566 -83 c0 -5 -5 -9 -12 -9 -6 0 -8 3 -5 7 4 3 1 13 -6 22 -11 14 -10 14 6
2 9 -7 17 -17 17 -22z m21 -126 c13 -16 12 -17 -3 -4 -17 13 -22 21 -14 21 2
0 10 -8 17 -17z m28 -227 c9 -10 8 -15 -2 -19 -8 -3 -13 3 -13 14 0 23 0 23
15 5z m8 -50 c0 -8 -6 -12 -14 -9 -7 3 -10 9 -7 14 8 14 21 11 21 -5z m-67
-212 c0 -8 -19 -13 -24 -6 -3 5 1 9 9 9 8 0 15 -2 15 -3z m-3100 -55 c0 -5 4
-8 8 -5 5 3 9 -1 9 -9 0 -8 -5 -11 -10 -8 -7 4 -8 -1 -3 -12 6 -16 4 -16 -10
-4 -11 9 -12 15 -5 17 9 3 9 7 0 18 -8 10 -8 14 0 14 6 0 11 -5 11 -11z m3033
-24 c-3 -9 -8 -14 -10 -11 -3 3 -2 9 2 15 9 16 15 13 8 -4z m-39 -146 c-3 -5
-10 -7 -15 -3 -5 3 -7 10 -3 15 3 5 10 7 15 3 5 -3 7 -10 3 -15z m-2854 -59
c0 -5 -5 -10 -11 -10 -5 0 -7 5 -4 10 3 6 8 10 11 10 2 0 4 -4 4 -10z m28 -62
c10 -10 15 -10 23 2 8 12 9 10 4 -6 -3 -14 1 -28 10 -38 9 -9 14 -16 10 -16
-3 0 -21 16 -39 35 -30 32 -37 52 -8 23z m132 -178 c0 -5 -2 -10 -4 -10 -3 0
-8 5 -11 10 -3 6 -1 10 4 10 6 0 11 -4 11 -10z m136 -146 c2 -23 1 -24 -11 -7
-10 13 -10 20 -2 25 7 4 12 8 12 8 0 0 1 -11 1 -26z m2209 6 c3 -6 -1 -7 -9
-4 -18 7 -21 14 -7 14 6 0 13 -4 16 -10z m-230 -227 c-4 -10 -8 -23 -9 -30 -4
-21 -14 -25 -33 -13 -17 11 -17 11 1 6 14 -5 17 -2 12 9 -3 9 -2 13 4 10 9 -6
14 8 11 28 0 4 4 7 10 7 7 0 8 -7 4 -17z m-98 -93 c-2 -26 -34 -59 -34 -36 0
8 5 14 11 13 5 -1 11 4 12 11 1 6 2 17 3 22 2 19 10 10 8 -10z m-1377 -199 c0
-5 9 -12 19 -16 10 -3 21 -15 24 -26 5 -18 2 -17 -18 5 -13 14 -29 26 -35 26
-5 0 -10 5 -10 10 0 6 5 10 10 10 6 0 10 -4 10 -9z m1020 -141 c0 -5 -5 -10
-11 -10 -5 0 -7 5 -4 10 3 6 8 10 11 10 2 0 4 -4 4 -10z m-40 -62 c0 -12 -6
-9 -26 13 -19 22 -19 22 4 8 12 -8 22 -17 22 -21z m-620 -112 c0 -3 -4 -8 -10
-11 -5 -3 -10 -1 -10 4 0 6 5 11 10 11 6 0 10 -2 10 -4z m478 -22 c-4 -11 -28
-14 -28 -4 0 8 22 20 28 14 2 -1 2 -6 0 -10z"/>
<path d="M1781 4084 c0 -11 3 -14 6 -6 3 7 2 16 -1 19 -3 4 -6 -2 -5 -13z"/>
<path d="M1630 4079 c0 -5 5 -7 10 -4 6 3 10 8 10 11 0 2 -4 4 -10 4 -5 0 -10
-5 -10 -11z"/>
<path d="M3412 4081 c2 -7 7 -12 11 -12 12 1 9 15 -3 20 -7 2 -11 -2 -8 -8z"/>
<path d="M3450 4081 c0 -6 4 -13 10 -16 6 -3 7 1 4 9 -7 18 -14 21 -14 7z"/>
<path d="M3548 4063 c7 -3 16 -2 19 1 4 3 -2 6 -13 5 -11 0 -14 -3 -6 -6z"/>
<path d="M2028 4013 c7 -3 16 -2 19 1 4 3 -2 6 -13 5 -11 0 -14 -3 -6 -6z"/>
<path d="M2070 3976 c0 -2 7 -7 16 -10 8 -3 12 -2 9 4 -6 10 -25 14 -25 6z"/>
<path d="M1257 3947 c-9 -23 8 -30 24 -10 8 9 9 14 2 10 -6 -4 -13 -2 -15 5
-3 8 -7 6 -11 -5z"/>
<path d="M3817 3919 c7 -7 15 -10 18 -7 3 3 -2 9 -12 12 -14 6 -15 5 -6 -5z"/>
<path d="M1196 3912 c-3 -5 1 -9 9 -9 8 0 12 4 9 9 -3 4 -7 8 -9 8 -2 0 -6 -4
-9 -8z"/>
<path d="M2728 3828 c-10 -10 -14 -18 -9 -18 10 0 36 29 30 34 -2 1 -12 -6
-21 -16z"/>
<path d="M2305 3819 c-4 -6 -4 -13 -1 -16 3 -4 6 -1 6 6 0 7 5 9 12 5 7 -4 8
-3 4 4 -9 15 -13 15 -21 1z"/>
<path d="M1052 3761 c2 -7 7 -12 11 -12 12 1 9 15 -3 20 -7 2 -11 -2 -8 -8z"/>
<path d="M2433 3691 c21 -31 52 -39 36 -9 -6 11 -13 17 -16 14 -4 -3 -13 0
-22 7 -12 10 -12 7 2 -12z"/>
<path d="M4087 3606 c-10 -8 -14 -16 -10 -19 5 -3 14 3 21 14 14 22 13 23 -11
5z"/>
<path d="M915 3561 c-3 -5 -2 -12 3 -15 5 -3 9 1 9 9 0 17 -3 19 -12 6z"/>
<path d="M4150 3501 c0 -6 4 -13 10 -16 6 -3 7 1 4 9 -7 18 -14 21 -14 7z"/>
<path d="M4146 3441 c-3 -5 2 -15 12 -22 16 -13 16 -13 2 5 -14 18 -13 19 3
13 11 -4 16 -3 12 3 -8 12 -22 13 -29 1z"/>
<path d="M860 3339 c-12 -8 -10 -9 9 -4 17 5 22 4 16 -5 -5 -9 -4 -11 4 -6 6
4 9 12 6 17 -8 12 -16 11 -35 -2z"/>
<path d="M861 3274 c0 -11 3 -14 6 -6 3 7 2 16 -1 19 -3 4 -6 -2 -5 -13z"/>
<path d="M4160 3260 c8 -5 20 -10 25 -10 6 0 3 5 -5 10 -8 5 -19 10 -25 10 -5
0 -3 -5 5 -10z"/>
<path d="M870 3140 c-9 -6 -10 -10 -3 -10 6 0 15 5 18 10 8 12 4 12 -15 0z"/>
<path d="M4123 3012 c-11 -10 -19 -26 -17 -36 1 -11 -1 -27 -6 -36 -6 -12 -5
-17 5 -17 7 0 11 6 8 14 -3 7 0 13 6 13 6 0 10 6 9 13 -2 6 3 11 10 10 6 -2
12 2 12 8 0 6 -7 8 -16 5 -10 -4 -14 -1 -12 6 3 7 10 13 16 13 7 0 12 4 13 8
1 16 -6 16 -28 -1z"/>
<path d="M939 2929 c0 -2 -2 -11 -4 -20 -1 -9 3 -16 10 -16 7 0 12 6 11 13 -2
13 -15 31 -17 23z"/>
<path d="M4063 2838 c-12 -21 -14 -48 -2 -48 5 0 8 4 5 9 -3 5 1 14 9 21 8 7
15 16 15 21 0 13 -18 11 -27 -3z"/>
<path d="M1035 2660 c3 -5 8 -10 11 -10 2 0 4 5 4 10 0 6 -5 10 -11 10 -5 0
-7 -4 -4 -10z"/>
<path d="M3921 2606 c-9 -11 -9 -16 0 -22 7 -4 9 -3 5 4 -3 6 2 15 11 21 10 6
13 11 7 11 -6 0 -17 -6 -23 -14z"/>
<path d="M3836 2491 c-3 -5 1 -11 9 -14 9 -4 12 -1 8 9 -6 16 -10 17 -17 5z"/>
<path d="M3585 2181 c-3 -5 -2 -12 3 -15 5 -3 9 1 9 9 0 17 -3 19 -12 6z"/>
<path d="M1476 2137 c3 -10 9 -15 12 -12 3 3 0 11 -7 18 -10 9 -11 8 -5 -6z"/>
<path d="M1570 2060 c0 -5 5 -10 11 -10 5 0 7 5 4 10 -3 6 -8 10 -11 10 -2 0
-4 -4 -4 -10z"/>
<path d="M487 1937 c-4 -11 -14 -14 -32 -11 -17 3 -24 1 -20 -6 3 -5 1 -10 -4
-10 -6 0 -11 5 -11 10 0 6 -5 10 -11 10 -5 0 -7 -6 -3 -12 6 -10 4 -10 -7 -2
-24 18 -58 14 -74 -9 -8 -12 -15 -17 -15 -11 0 5 5 15 10 20 8 8 -1 11 -29 11
-22 0 -38 -4 -35 -9 3 -4 0 -8 -5 -8 -6 0 -11 5 -11 10 0 6 -5 10 -11 10 -5 0
-8 -4 -4 -9 3 -5 1 -13 -5 -16 -6 -4 -9 -1 -8 6 2 6 -3 14 -11 17 -8 3 -11 0
-7 -7 4 -6 2 -11 -3 -11 -6 0 -11 5 -11 10 0 6 -5 10 -11 10 -5 0 -7 -6 -3
-12 6 -10 4 -10 -7 0 -19 17 -34 15 -19 -3 11 -13 10 -14 -4 -9 -9 3 -16 10
-16 15 0 5 -5 9 -11 9 -5 0 -8 -4 -4 -9 3 -5 1 -13 -5 -16 -6 -4 -9 -1 -8 6 2
6 -3 14 -11 17 -8 3 -11 0 -7 -7 4 -6 2 -11 -3 -11 -6 0 -11 5 -11 10 0 6 -5
10 -11 10 -5 0 -7 -4 -4 -10 3 -5 2 -10 -4 -10 -5 0 -11 5 -13 12 -2 6 -10 8
-16 4 -9 -5 -12 -235 -12 -967 l0 -959 2560 0 2560 0 0 967 c0 856 -2 964 -15
947 -13 -16 -14 -16 -9 -1 3 9 1 17 -4 17 -6 0 -13 -8 -15 -17 -4 -17 -5 -17
-6 0 -1 24 -16 21 -30 -5 l-11 -23 6 23 c3 12 1 22 -5 22 -5 0 -12 -8 -14 -17
-4 -17 -5 -17 -6 0 -1 19 -16 23 -26 6 -4 -6 -13 -8 -20 -5 -7 2 -19 -1 -26
-7 -11 -10 -11 -9 0 6 8 10 9 17 3 17 -6 0 -13 -4 -17 -9 -3 -6 -14 -9 -25 -8
-10 1 -17 4 -14 8 2 4 -15 6 -39 4 -23 -1 -42 -4 -42 -5 0 -1 -13 -4 -30 -6
-18 -2 -25 0 -17 5 8 5 -3 8 -28 8 -23 0 -36 -3 -30 -7 6 -4 -7 -7 -30 -7 -23
0 -36 3 -30 7 7 4 0 8 -15 8 -19 0 -23 -3 -14 -9 10 -6 7 -8 -9 -6 -13 1 -21
6 -18 14 3 7 -1 10 -9 6 -8 -3 -13 -9 -10 -13 3 -5 0 -12 -6 -16 -8 -4 -9 -3
-5 4 4 7 2 12 -4 12 -6 0 -8 6 -5 13 4 6 0 4 -8 -6 -11 -14 -16 -15 -20 -5 -4
8 -6 7 -6 -4 -1 -10 -6 -18 -12 -18 -5 0 -7 5 -3 12 4 7 3 8 -5 4 -9 -6 -9
-11 0 -22 6 -8 9 -17 5 -21 -3 -3 -6 -1 -6 5 0 6 -7 9 -15 6 -14 -6 -13 -8 1
-19 12 -8 14 -14 6 -19 -19 -11 -14 -26 6 -19 11 4 9 -1 -8 -16 -14 -12 -20
-20 -13 -17 6 4 14 2 18 -4 4 -6 12 -7 18 -3 7 4 6 0 -2 -10 -15 -18 -26 -23
-16 -7 3 6 1 10 -5 10 -7 0 -10 -6 -7 -14 3 -7 0 -19 -6 -26 -9 -10 -6 -10 13
0 24 13 25 12 8 -7 -24 -26 -23 -40 1 -19 14 13 21 14 27 5 4 -7 3 -10 -3 -6
-13 8 -36 -17 -25 -28 4 -5 1 -5 -5 -1 -7 4 -13 3 -13 -2 0 -5 10 -14 23 -21
l22 -11 -22 6 c-13 3 -23 1 -23 -5 0 -6 5 -11 10 -11 6 0 10 -5 10 -11 0 -5
-4 -7 -10 -4 -5 3 -10 1 -10 -4 0 -6 5 -11 10 -11 6 0 10 -5 10 -11 0 -5 -4
-7 -10 -4 -6 3 -10 1 -10 -4 0 -6 5 -11 10 -11 6 0 10 -5 10 -11 0 -5 -5 -7
-11 -3 -7 4 -10 1 -7 -7 3 -8 11 -13 17 -11 7 1 10 -2 6 -8 -3 -6 -11 -8 -16
-5 -5 4 -9 1 -9 -4 0 -6 5 -11 10 -11 6 0 10 -5 10 -11 0 -5 -4 -8 -8 -5 -5 3
-9 -13 -9 -35 0 -28 3 -37 11 -29 5 5 14 10 20 10 5 0 1 -7 -10 -15 -16 -13
-17 -16 -4 -25 13 -8 13 -10 -1 -10 -9 0 -22 -7 -29 -16 -11 -12 -11 -15 0
-12 8 2 14 -2 15 -9 0 -6 3 -15 8 -19 10 -11 9 -24 -4 -24 -5 0 -7 6 -3 13 6
9 5 9 -8 0 -8 -7 -19 -9 -23 -5 -5 4 -5 1 -1 -6 4 -7 11 -10 16 -7 5 3 11 1
15 -5 4 -6 12 -7 18 -3 8 5 8 2 0 -9 -7 -8 -9 -19 -5 -23 4 -5 1 -5 -5 -1 -20
11 -15 -12 5 -24 16 -11 16 -11 -1 -6 -12 4 -17 2 -14 -6 2 -7 10 -12 16 -10
7 1 10 -2 6 -8 -3 -6 -11 -8 -16 -5 -5 4 -9 2 -9 -4 0 -5 6 -12 13 -14 10 -4
10 -6 0 -6 -7 -1 -13 -6 -13 -12 0 -5 5 -7 10 -4 6 3 10 1 10 -4 0 -6 -4 -11
-10 -11 -5 0 -10 -5 -10 -11 0 -6 8 -8 18 -5 16 6 16 5 0 -8 -19 -14 -25 -32
-8 -21 6 3 10 1 10 -4 0 -6 -4 -11 -9 -11 -6 0 -9 -12 -7 -27 1 -22 6 -27 21
-25 16 2 17 1 5 -7 -8 -5 -18 -7 -22 -5 -17 10 -7 -16 10 -26 16 -11 16 -11
-1 -6 -12 4 -17 2 -14 -6 2 -7 10 -12 16 -10 7 1 10 -2 6 -8 -3 -6 -11 -8 -16
-5 -5 4 -9 2 -9 -4 0 -5 6 -12 13 -14 9 -4 9 -6 0 -6 -7 -1 -13 -6 -13 -12 0
-5 4 -7 10 -4 6 3 10 1 10 -4 0 -6 -4 -11 -10 -11 -5 0 -10 -5 -10 -11 0 -6 8
-8 18 -5 16 6 16 5 0 -8 -19 -14 -25 -32 -8 -21 17 11 11 -11 -11 -39 -13 -17
-16 -26 -8 -24 10 2 13 -7 12 -29 -1 -18 3 -33 8 -33 12 0 8 -32 -6 -42 -6 -5
-5 -8 3 -8 6 0 12 -5 12 -11 0 -5 -4 -8 -8 -5 -4 2 -14 0 -22 -6 -12 -8 -12
-9 2 -4 10 3 20 1 23 -4 5 -9 -15 -15 -37 -11 -4 0 -5 -6 -2 -14 4 -8 1 -15
-5 -15 -6 0 -11 4 -11 8 0 14 -34 10 -52 -5 -12 -11 -21 -12 -36 -4 -13 7 -22
7 -31 -2 -10 -9 -11 -8 -6 4 4 10 0 19 -9 22 -10 4 -13 1 -9 -9 3 -7 1 -14 -5
-14 -6 0 -12 5 -14 11 -2 5 -10 11 -18 12 -8 2 -22 7 -30 12 -13 8 -13 7 0
-10 14 -17 13 -18 -3 -12 -11 4 -16 3 -12 -3 3 -6 1 -10 -4 -10 -6 0 -11 4
-11 9 0 5 -7 12 -16 15 -8 3 -12 2 -9 -4 8 -13 -1 -13 -27 1 -18 10 -24 8 -38
-11 -9 -13 -23 -20 -31 -17 -10 4 -9 6 4 6 9 1 17 6 17 12 0 6 -9 8 -21 4 -16
-5 -19 -4 -14 5 5 9 4 11 -4 6 -6 -4 -9 -12 -6 -17 4 -5 1 -9 -4 -9 -6 0 -11
4 -11 9 0 5 -7 12 -16 15 -8 3 -12 2 -9 -4 8 -13 -1 -13 -25 0 -16 8 -18 8
-14 -5 4 -8 2 -15 -4 -15 -6 0 -12 5 -14 11 -2 5 -10 11 -18 12 -8 2 -22 7
-30 12 -13 8 -13 7 0 -10 14 -17 13 -18 -3 -12 -11 4 -16 3 -12 -3 3 -6 1 -10
-4 -10 -6 0 -11 4 -11 9 0 5 -7 12 -16 15 -8 3 -12 2 -9 -4 3 -5 -9 -7 -30 -5
-19 3 -35 1 -35 -5 0 -6 -5 -10 -11 -10 -5 0 -7 4 -4 10 11 17 -7 11 -21 -7
-13 -17 -14 -17 -8 -1 3 10 1 18 -5 18 -6 0 -11 -4 -11 -10 0 -5 -5 -10 -11
-10 -5 0 -7 5 -4 10 3 6 2 10 -4 10 -5 0 -12 -6 -14 -12 -4 -10 -6 -10 -6 0
-1 6 -6 12 -12 12 -5 0 -8 -4 -4 -9 3 -5 1 -13 -5 -16 -6 -4 -9 -1 -8 6 2 6
-3 14 -10 16 -8 3 -10 -2 -6 -14 5 -17 5 -17 -6 -1 -10 17 -36 27 -26 10 2 -4
0 -14 -5 -22 -8 -12 -9 -11 -7 4 2 10 -3 21 -10 23 -8 3 -10 -1 -6 -14 6 -16
5 -16 -10 2 -12 14 -19 16 -22 8 -3 -7 -10 -13 -15 -13 -6 0 -7 5 -4 10 11 17
-7 11 -21 -8 -13 -16 -14 -16 -8 1 3 9 1 17 -5 17 -6 0 -11 -4 -11 -10 0 -5
-5 -10 -11 -10 -5 0 -7 5 -4 10 3 6 2 10 -4 10 -5 0 -12 -6 -14 -12 -4 -10 -6
-10 -6 0 -1 6 -6 12 -12 12 -5 0 -8 -4 -4 -9 3 -5 1 -13 -5 -16 -6 -4 -9 -1
-8 6 2 6 -3 14 -10 16 -8 3 -10 -2 -6 -14 5 -17 5 -17 -6 -1 -10 17 -36 27
-26 10 2 -4 0 -14 -5 -22 -8 -12 -9 -11 -7 4 2 10 -3 21 -10 23 -8 3 -10 -1
-6 -14 6 -16 5 -16 -10 2 -12 14 -19 16 -22 8 -3 -7 -10 -13 -15 -13 -6 0 -7
5 -4 10 11 17 -7 11 -21 -7 -13 -17 -14 -17 -8 0 3 9 1 17 -5 17 -6 0 -11 -4
-11 -10 0 -5 -5 -10 -11 -10 -5 0 -7 5 -4 10 3 6 2 10 -4 10 -5 0 -12 -6 -15
-12 -4 -7 -4 -3 -2 10 2 12 0 20 -5 16 -5 -3 -9 -11 -9 -19 0 -8 -4 -16 -9
-19 -5 -3 -8 2 -7 11 0 9 -6 18 -14 20 -10 3 -11 2 -3 -4 7 -5 9 -14 4 -22 -7
-10 -11 -8 -16 10 -7 22 -8 22 -21 -7 l-13 -29 4 35 4 35 -14 -30 c-9 -19 -14
-24 -15 -12 0 9 -6 16 -12 15 -7 -2 -12 3 -10 9 3 18 -3 16 -19 -4 -10 -11
-10 -14 -1 -9 6 4 12 2 12 -3 0 -15 -13 -14 -29 1 -10 9 -12 9 -7 1 3 -6 1
-15 -5 -19 -7 -4 -10 -3 -6 2 3 5 -1 17 -8 27 -11 16 -13 16 -19 2 -3 -9 -2
-13 4 -10 6 3 10 2 10 -4 0 -5 -9 -9 -19 -8 -11 0 -17 5 -15 9 3 5 0 7 -8 6
-7 -2 -12 3 -10 11 3 12 0 12 -12 1 -9 -7 -16 -20 -17 -29 0 -13 -2 -12 -8 3
-7 18 -8 18 -24 -5 -9 -13 -17 -19 -17 -13 0 5 5 15 10 20 8 8 -1 11 -29 11
-22 0 -38 -4 -35 -9 3 -4 0 -8 -5 -8 -6 0 -11 5 -11 10 0 6 -5 10 -11 10 -5 0
-8 -4 -4 -9 3 -5 1 -13 -5 -16 -6 -4 -9 -1 -8 6 2 6 -3 14 -11 17 -8 3 -11 0
-7 -7 4 -6 2 -11 -3 -11 -6 0 -11 5 -11 10 0 6 -5 10 -11 10 -5 0 -7 -6 -3
-12 6 -10 4 -10 -7 -1 -19 18 -34 16 -19 -2 11 -13 10 -14 -4 -9 -9 3 -16 10
-16 15 0 5 -5 9 -11 9 -5 0 -8 -4 -4 -9 3 -5 1 -13 -5 -16 -6 -4 -9 -1 -8 6 2
6 -3 14 -11 17 -8 3 -11 0 -7 -7 4 -6 2 -11 -3 -11 -6 0 -11 5 -11 10 0 6 -5
10 -11 10 -5 0 -7 -4 -4 -10 3 -5 1 -10 -4 -10 -6 0 -11 5 -11 10 0 6 -5 10
-11 10 -5 0 -7 -5 -3 -11 3 -6 -9 -3 -27 6 -31 17 -33 17 -49 -5 -9 -13 -23
-20 -31 -17 -10 4 -9 6 4 6 9 1 17 6 17 12 0 6 -9 8 -21 4 -16 -5 -19 -4 -14
5 5 9 4 11 -4 6 -6 -4 -9 -12 -6 -17 4 -5 1 -9 -4 -9 -6 0 -11 4 -11 9 0 5 -7
12 -16 15 -8 3 -12 2 -9 -4 8 -13 -1 -13 -25 0 -16 8 -18 8 -14 -5 4 -8 2 -15
-4 -15 -6 0 -12 5 -14 11 -2 5 -10 11 -18 12 -8 2 -22 7 -30 12 -13 8 -13 7 0
-10 14 -17 13 -18 -3 -12 -11 4 -16 3 -12 -3 3 -6 1 -10 -4 -10 -6 0 -11 4
-11 9 0 5 -7 12 -16 15 -8 3 -12 2 -9 -4 8 -13 -1 -13 -27 1 -18 10 -24 8 -38
-11 -9 -13 -23 -20 -31 -17 -10 4 -9 6 4 6 9 1 17 6 17 12 0 6 -9 8 -21 4 -16
-5 -19 -4 -14 5 5 9 4 11 -4 6 -6 -4 -9 -12 -6 -17 4 -5 1 -9 -4 -9 -6 0 -11
4 -11 9 0 5 -7 12 -16 15 -8 3 -12 2 -9 -4 8 -13 -1 -13 -25 0 -16 8 -18 8
-14 -5 4 -8 2 -15 -4 -15 -6 0 -12 5 -14 11 -2 5 -10 11 -18 12 -8 2 -22 7
-30 12 -13 8 -13 7 0 -10 14 -17 13 -18 -3 -12 -11 4 -16 3 -12 -3 3 -6 1 -10
-4 -10 -6 0 -11 4 -11 9 0 5 -7 12 -16 15 -8 3 -12 2 -9 -4 3 -6 0 -10 -9 -10
-8 0 -17 -6 -19 -12 -4 -8 -6 -6 -7 5 -2 9 -3 21 -4 26 0 5 -5 13 -9 18 -5 4
-8 4 -6 -2 3 -15 -12 -45 -23 -45 -5 0 -6 5 -3 10 4 6 1 9 -7 8 -7 -2 -12 4
-10 12 1 10 -4 8 -16 -6 -16 -19 -57 -30 -46 -12 10 16 -9 8 -22 -9 -13 -17
-14 -17 -8 -1 3 10 1 18 -4 18 -6 0 -13 -8 -15 -17 -4 -17 -5 -17 -6 0 -1 24
-16 21 -30 -5 l-11 -23 6 23 c3 12 1 22 -5 22 -5 0 -12 -8 -14 -18 -4 -16 -5
-16 -6 1 -1 19 -16 23 -26 6 -4 -6 -13 -8 -20 -5 -7 2 -19 -1 -26 -7 -11 -10
-11 -9 0 6 8 10 9 17 3 17 -6 0 -13 -4 -17 -9 -3 -6 -14 -9 -25 -8 -10 1 -16
5 -14 9 10 16 -9 8 -22 -9 -13 -17 -14 -17 -8 -1 3 10 1 18 -4 18 -6 0 -13 -8
-15 -18 -4 -16 -5 -16 -6 1 -1 24 -16 21 -30 -5 l-11 -23 6 23 c3 12 1 22 -5
22 -5 0 -12 -8 -14 -18 -4 -16 -5 -16 -6 1 -1 19 -16 23 -26 6 -4 -6 -13 -8
-20 -5 -7 2 -19 -1 -26 -7 -11 -10 -11 -9 0 5 8 11 9 18 3 18 -6 0 -13 -4 -17
-9 -3 -6 -14 -9 -25 -8 -10 1 -16 5 -14 9 10 16 -9 8 -22 -10 -13 -16 -14 -16
-8 1 3 9 1 17 -4 17 -6 0 -13 -8 -15 -18 -4 -16 -5 -16 -6 1 -1 24 -16 21 -30
-5 l-11 -23 6 23 c3 12 1 22 -5 22 -5 0 -12 -8 -14 -17 -4 -17 -5 -17 -6 0 -1
19 -16 23 -26 6 -4 -6 -13 -8 -20 -5 -7 2 -19 -1 -26 -7 -11 -10 -11 -9 0 6 8
10 9 17 3 17 -6 0 -13 -4 -16 -9 -3 -5 -17 -8 -32 -8 -18 -1 -22 2 -13 8 9 5
6 8 -11 6 -14 -1 -32 -9 -40 -17 -8 -9 -11 -10 -6 -3 15 22 -2 27 -21 6 -10
-10 -14 -13 -9 -6 14 22 -3 28 -19 7 -13 -16 -14 -16 -9 -1 3 9 1 17 -4 17 -6
0 -13 -8 -15 -18 -4 -16 -5 -16 -6 1 0 9 -5 17 -11 17 -5 0 -9 -4 -7 -9 1 -5
-2 -9 -8 -9 -5 -1 -9 6 -9 14 2 11 -1 12 -12 3 -8 -6 -11 -16 -8 -21 4 -6 -2
-6 -13 1 -11 6 -24 7 -28 3 -5 -4 -5 -2 -1 5 8 15 -33 14 -53 -1 -11 -8 -13
-8 -7 2 4 6 2 12 -3 12 -6 0 -11 -6 -11 -14 0 -23 -31 -29 -37 -6 -6 22 -33
28 -33 8 0 -7 -5 -5 -11 5 -6 9 -15 14 -21 11 -7 -5 -7 -1 -1 11 6 10 8 27 5
38 -3 14 -1 18 6 13 7 -4 12 -2 12 3 0 6 -6 11 -12 11 -9 0 -8 4 2 10 10 6 11
10 3 10 -7 0 -13 5 -13 11 0 5 4 8 9 5 5 -3 14 1 21 9 10 12 8 13 -9 10 -12
-2 -21 0 -21 6 0 5 5 9 10 9 6 0 10 5 10 11 0 6 -8 8 -17 5 -17 -6 -17 -5 0 8
18 14 24 32 7 21 -5 -3 -10 -1 -10 4 0 6 5 11 10 11 6 0 10 5 10 11 0 6 -8 8
-17 5 -17 -6 -17 -5 -1 8 19 14 25 32 8 21 -5 -3 -10 -1 -10 4 0 6 5 11 10 11
6 0 10 5 10 11 0 6 -8 8 -17 5 -17 -6 -17 -5 0 8 18 14 24 32 7 21 -6 -3 -10
-2 -10 4 0 5 6 12 13 15 8 3 6 10 -8 22 -18 15 -18 16 -2 10 13 -4 17 -2 14 6
-2 7 -13 12 -23 10 -15 -2 -16 -1 -4 7 8 5 18 7 22 5 17 -10 7 16 -9 26 -17
11 -17 11 0 6 12 -4 17 -2 14 6 -2 7 -10 12 -16 10 -7 -1 -10 2 -6 8 3 6 11 8
16 5 5 -4 9 -2 9 4 0 5 -6 12 -12 14 -10 4 -10 6 0 6 6 1 12 6 12 12 0 5 -4 7
-10 4 -5 -3 -10 -1 -10 4 0 6 5 11 10 11 6 0 10 5 10 11 0 6 -8 8 -17 5 -17
-6 -17 -5 0 8 18 14 24 32 7 21 -5 -3 -10 -1 -10 4 0 6 4 11 10 11 6 0 8 16 5
35 -2 21 0 33 5 30 6 -3 7 1 4 9 -3 9 -10 16 -15 16 -5 0 -9 5 -9 11 0 5 4 7
10 4 6 -4 7 1 3 12 -6 16 -5 17 12 3 17 -13 18 -13 10 0 -5 8 -10 22 -12 30
-1 8 -7 16 -12 18 -6 2 -11 8 -11 14 0 6 7 8 15 4 13 -4 13 -2 5 14 -13 24
-13 33 0 25 6 -3 7 1 4 9 -3 9 -10 16 -15 16 -5 0 -9 5 -9 11 0 5 4 8 9 4 5
-3 13 0 17 6 5 8 3 9 -6 4 -9 -5 -10 -2 -5 14 4 12 2 21 -4 21 -6 0 -11 -8
-12 -17 0 -13 -2 -14 -6 -4 -3 8 4 22 17 31 19 15 21 20 10 40 -10 18 -14 20
-22 9 -8 -11 -9 -11 -5 2 3 9 0 22 -6 29 -7 7 0 5 16 -5 30 -19 35 -15 11 9
-12 12 -12 16 -2 16 10 0 10 2 0 8 -7 5 -14 18 -17 30 -3 15 0 19 12 15 9 -4
11 -8 4 -12 -6 -4 -2 -12 10 -20 17 -10 20 -10 13 1 -5 7 -9 19 -11 27 -1 8
-8 18 -15 22 -12 8 -4 13 15 10 5 -1 6 3 2 9 -3 6 -10 8 -14 6 -4 -3 -13 5
-21 17 -12 20 -12 21 3 9 22 -18 40 -6 27 17 -6 12 -5 22 3 31 8 9 8 11 1 7
-7 -4 -15 0 -18 9 -3 8 -2 13 2 11 4 -3 13 2 21 10 12 13 11 14 -6 9 -13 -4
-20 -2 -20 8 0 9 4 13 9 10 4 -3 8 0 8 5 0 6 -6 11 -12 11 -9 0 -8 4 2 10 8 5
10 10 4 10 -5 0 -16 -6 -23 -12 -11 -11 -12 -9 -7 7 5 16 1 21 -14 22 -11 1
-20 -3 -20 -8 0 -6 5 -7 12 -3 7 5 8 3 3 -6 -6 -10 -11 -10 -20 3 -14 19 -30
23 -19 5 4 -6 3 -8 -4 -4 -5 3 -12 3 -15 -1 -2 -5 -2 -2 -1 5 2 6 -1 12 -6 12
-6 0 -10 -6 -10 -12 -1 -7 -7 -2 -14 11 -10 19 -14 20 -19 8z m13 -17 c0 -5
-5 -10 -11 -10 -5 0 -7 5 -4 10 3 6 8 10 11 10 2 0 4 -4 4 -10z m4365 -10 c3
-6 -1 -7 -9 -4 -18 7 -21 14 -7 14 6 0 13 -4 16 -10z m-4229 -107 c-3 -3 0
-15 6 -27 8 -16 8 -18 -1 -10 -15 14 -24 57 -10 48 6 -3 8 -8 5 -11z m14 -243
c0 -5 -4 -10 -10 -10 -5 0 -10 5 -10 10 0 6 5 10 10 10 6 0 10 -4 10 -10z
m-22 -126 c-3 -14 -5 -12 -10 9 -3 19 -2 25 4 19 6 -6 8 -18 6 -28z m3872 -50
c0 -8 -19 -13 -24 -6 -3 5 1 9 9 9 8 0 15 -2 15 -3z m-3854 -16 c4 -7 3 -8 -4
-4 -7 4 -12 0 -12 -10 0 -10 -3 -15 -6 -11 -7 6 2 37 10 37 3 0 8 -5 12 -12z
m-16 -84 c0 -8 -4 -14 -8 -14 -4 0 -8 9 -8 19 0 11 4 17 8 15 4 -3 8 -12 8
-20z m3875 -463 c3 -5 0 -13 -6 -17 -7 -4 -9 -3 -5 4 3 6 -2 13 -11 15 -16 4
-16 5 -1 6 9 0 19 -3 23 -8z m5 -36 c0 -2 -6 -8 -13 -14 -10 -8 -14 -7 -14 2
0 8 6 14 14 14 7 0 13 -1 13 -2z m-2685 -144 c3 -5 2 -12 -3 -15 -5 -3 -9 1
-9 9 0 17 3 19 12 6z m190 -12 c-4 -5 -14 -8 -23 -8 -15 1 -15 2 1 6 9 2 14 9
11 15 -4 7 -2 8 5 4 6 -4 9 -12 6 -17z m195 11 c0 -5 -4 -10 -10 -10 -5 0 -10
5 -10 10 0 6 5 10 10 10 6 0 10 -4 10 -10z m125 -11 c-4 -5 -14 -8 -23 -8 -15
1 -15 2 1 6 9 2 14 9 11 15 -4 7 -2 8 5 4 6 -4 9 -12 6 -17z m195 11 c0 -5 -4
-10 -10 -10 -5 0 -10 5 -10 10 0 6 5 10 10 10 6 0 10 -4 10 -10z m415 1 c3 -5
2 -12 -3 -15 -5 -3 -9 1 -9 9 0 17 3 19 12 6z m990 -12 c-4 -5 -14 -8 -23 -8
-15 1 -15 2 1 6 9 2 14 9 11 15 -4 7 -2 8 5 4 6 -4 9 -12 6 -17z m195 11 c0
-5 -4 -10 -10 -10 -5 0 -10 5 -10 10 0 6 5 10 10 10 6 0 10 -4 10 -10z m125
-11 c-4 -5 -14 -8 -23 -8 -15 1 -15 2 1 6 9 2 14 9 11 15 -4 7 -2 8 5 4 6 -4
9 -12 6 -17z m-3470 1 c3 -6 -1 -7 -9 -4 -18 7 -21 14 -7 14 6 0 13 -4 16 -10z
m3636 -7 c13 -17 13 -17 -6 -3 -11 8 -22 16 -24 17 -2 2 0 3 6 3 6 0 17 -8 24
-17z m-2477 -1 c2 -4 -4 -8 -15 -8 -10 0 -19 4 -19 8 0 4 6 8 14 8 8 0 17 -4
20 -8z m160 -1 c3 -4 -6 -6 -19 -3 -14 2 -25 6 -25 8 0 8 39 4 44 -5z m160 0
c3 -4 -6 -6 -19 -3 -14 2 -25 6 -25 8 0 8 39 4 44 -5z m160 0 c3 -4 -6 -6 -19
-3 -14 2 -25 6 -25 8 0 8 39 4 44 -5z m1440 1 c2 -4 -4 -8 -15 -8 -10 0 -19 4
-19 8 0 4 6 8 14 8 8 0 17 -4 20 -8z m160 -1 c3 -4 -6 -6 -19 -3 -14 2 -25 6
-25 8 0 8 39 4 44 -5z m160 0 c3 -4 -6 -6 -19 -3 -14 2 -25 6 -25 8 0 8 39 4
44 -5z"/>
<path d="M3256 1838 c3 -4 11 -5 19 -1 21 7 19 12 -4 10 -11 0 -18 -5 -15 -9z"/>
<path d="M1799 1823 c-13 -16 -12 -17 4 -4 9 7 17 15 17 17 0 8 -8 3 -21 -13z"/>
<path d="M3100 1695 c-19 -22 -8 -25 13 -3 9 10 13 18 8 18 -5 0 -14 -7 -21
-15z"/>
<path d="M2010 1628 c0 -10 5 -18 11 -18 5 0 7 -4 4 -10 -3 -6 1 -7 10 -3 12
4 13 8 5 13 -7 4 -16 14 -21 21 -7 11 -9 10 -9 -3z"/>
<path d="M2129 1537 c-1 -4 -2 -10 -3 -14 -1 -5 -5 -14 -9 -20 -5 -7 -4 -13 2
-13 11 0 25 39 17 47 -3 4 -7 3 -7 0z"/>
<path d="M2696 1331 c-3 -4 6 -8 20 -9 13 -1 24 0 24 2 0 7 -40 14 -44 7z"/>
<path d="M2442 1245 c4 -4 2 -15 -4 -24 -7 -9 -9 -13 -4 -9 12 10 48 -11 41
-22 -3 -6 1 -7 11 -3 16 6 15 7 -2 20 -10 7 -22 13 -27 13 -4 0 -6 4 -2 9 3 5
0 13 -7 17 -7 4 -10 4 -6 -1z"/>
<path d="M2572 1227 c-8 -9 -8 -17 0 -27 8 -12 9 -12 4 2 -6 20 10 34 17 16 4
-9 6 -10 6 -1 1 18 -15 24 -27 10z"/>
<path d="M652 687 c-6 -7 -7 -18 -3 -26 6 -9 11 -10 15 -2 4 6 2 11 -5 11 -8
0 -8 4 1 15 7 8 10 15 7 15 -2 0 -9 -6 -15 -13z"/>
<path d="M4334 646 c11 -9 24 -16 30 -16 12 0 7 5 -24 19 -24 11 -24 11 -6 -3z"/>
<path d="M700 629 c0 -5 5 -7 10 -4 6 3 10 8 10 11 0 2 -4 4 -10 4 -5 0 -10
-5 -10 -11z"/>
</g>
</svg>
